<svg id="Layer_1" data-name="Layer 1" xmlns="http://www.w3.org/2000/svg" viewBox="0 0 200 200"><defs><style>.cls-1{fill:#606060;}</style></defs><title>Icon Produk</title><path class="cls-1" d="M179.79,57.7l-9.15-25.14A16.07,16.07,0,0,0,150.06,23l-16.82,6.12c0-.16-86.15,31.08-85.92,31.27L29.39,66.89a16,16,0,0,0-9.59,20.57l9.15,25.14,11.39-4.12v62.46a16,16,0,0,0,16,16.05h107a16.07,16.07,0,0,0,16.05-16.05V90H91.13ZM153.72,33a5.36,5.36,0,0,1,6.86,3.2l5.49,15.08-60.34,22L98.41,53.16ZM98.41,53.16l7.32,20.11L95.68,76.93,88.36,56.82ZM35.34,98.89,29.85,83.81A5.35,5.35,0,0,1,33,76.95L88.36,56.82l7.32,20.11Zm90.54,1.78h42.88v70.27a5.42,5.42,0,0,1-5.42,5.35H125.88Zm-21.4,0h10.77V176.3H104.48Zm-10.63,0V176.3H56.32A5.36,5.36,0,0,1,51,170.95V104.59l10.76-3.92Z"/></svg>