<?xml version="1.0" encoding="utf-8"?>
<!-- Generator: Adobe Illustrator 21.1.0, SVG Export Plug-In . SVG Version: 6.00 Build 0)  -->
<svg version="1.1" id="Layer_1" xmlns="http://www.w3.org/2000/svg" xmlns:xlink="http://www.w3.org/1999/xlink" x="0px" y="0px"
	 viewBox="0 0 200 200" style="enable-background:new 0 0 200 200;" xml:space="preserve">
<style type="text/css">
	.st0{fill:#FFFFFF;}
</style>
<path class="st0" d="M179.8,57.7l-9.1-25.1c-3.1-8.3-12.3-12.6-20.6-9.6l-16.8,6.1c0-0.2-86.2,31.1-85.9,31.3l-17.9,6.5
	c-8.3,3-12.6,12.2-9.6,20.5c0,0,0,0.1,0,0.1l9.1,25.1l11.4-4.1v62.5c0,8.8,7.1,16,15.9,16c0,0,0,0,0.1,0h107c8.9,0,16-7.2,16.1-16.1
	V90H91.1L179.8,57.7z M153.7,33c2.8-1,5.8,0.4,6.9,3.2l5.5,15.1l-60.3,22l-7.3-20.1L153.7,33z M98.4,53.2l7.3,20.1l-10.1,3.7
	l-7.3-20.1L98.4,53.2z M35.3,98.9l-5.5-15.1c-1-2.8,0.4-5.8,3.1-6.9l55.4-20.1l7.3,20.1L35.3,98.9z M125.9,100.7h42.9v70.3
	c0,3-2.5,5.4-5.4,5.4h-37.5L125.9,100.7z M104.5,100.7h10.8v75.6h-10.8V100.7z M93.9,100.7v75.6H56.3c-2.9,0-5.3-2.4-5.3-5.4v-66.4
	l10.8-3.9H93.9z"/>
</svg>
